<svg width="184" height="160" viewBox="0 0 184 160" fill="none" xmlns="http://www.w3.org/2000/svg">
<path fill-rule="evenodd" clip-rule="evenodd" d="M113.387 3.28188C123.111 6.18268 126.111 17.6593 121.037 26.4474C115.963 35.2354 104.571 37.7597 94.4599 36.8987C89.6689 36.4907 84.7987 36.9066 80.0652 38.175C69.3346 41.0502 60.1856 48.0704 54.6311 57.6912C49.0765 67.312 47.5713 78.7453 50.4465 89.476C51.7149 94.2094 53.7897 98.6352 56.5386 102.58C62.3398 110.906 65.8497 122.034 60.7759 130.822C55.7022 139.61 44.2633 142.751 36.8891 135.78C26.3979 125.863 18.7488 113.16 14.9512 98.9869C11.2861 85.3086 11.4124 71.0221 15.1356 57.6055C6.37839 54.9674 0 46.8399 0 37.2226C0 25.4675 9.52944 15.938 21.2846 15.938C27.1224 15.938 32.4113 18.2883 36.2567 22.0942C45.7721 12.8976 57.5439 6.16574 70.5542 2.67962C84.7269 -1.11795 99.5526 -0.845031 113.387 3.28188Z" fill="url(#paint0_linear_8_834)"/>
<path fill-rule="evenodd" clip-rule="evenodd" d="M71.071 156.633C61.3469 153.732 58.3474 142.255 63.4212 133.467C68.495 124.679 79.8871 122.155 89.998 123.016C94.7891 123.424 99.6593 123.008 104.393 121.74C115.123 118.865 124.272 111.844 129.827 102.224C135.381 92.6028 136.887 81.1695 134.011 70.4389C132.743 65.7054 130.668 61.2796 127.919 57.3345C122.118 49.0087 118.608 37.8806 123.682 29.0926C128.756 20.3046 140.195 17.1639 147.569 24.1348C158.06 34.0522 165.709 46.7552 169.507 60.9279C173.295 75.0656 173.033 89.853 168.935 103.658C177.185 106.589 183.093 114.465 183.093 123.72C183.093 135.475 173.563 145.005 161.808 145.005C156.039 145.005 150.806 142.71 146.973 138.983C137.68 147.585 126.36 153.898 113.904 157.235C99.731 161.033 84.9053 160.76 71.071 156.633Z" fill="url(#paint1_linear_8_834)"/>
<defs>
<linearGradient id="paint0_linear_8_834" x1="61.7359" y1="1.52588e-05" x2="61.7359" y2="139.592" gradientUnits="userSpaceOnUse">
<stop stop-color="#A92733"/>
<stop offset="1" stop-color="#430F14"/>
</linearGradient>
<linearGradient id="paint1_linear_8_834" x1="122.039" y1="20.3229" x2="122.039" y2="159.915" gradientUnits="userSpaceOnUse">
<stop stop-color="#001EFF"/>
<stop offset="1" stop-color="#30366A"/>
</linearGradient>
</defs>
</svg>
